# xmcd
#
# Track frame offsets:
#  150
#  14977
#  28179
#  46271
#  70590
#  81759
#  98826
#  113095
#  130782
#  155439
#  158828
#  172361
#  201470
#  226170
#  244972
#  260854
#  284836
#  319931
#  339873
#
# Disc length: 4701 seconds
#
# Revision: 0
# Processed by: cddbd v1.5.1PL2 Copyright (c) Steve Scherf et al.
# Submitted via: Collectorz.com_Music_Collector 6.9
#
DISCID=1b125b13
DTITLE=Breakout - Na drugim brzegu teczy and 70a
DYEAR=1969
DGENRE=Blues
TTITLE0=Poszlabym za toba
TTITLE1=Nie ukrywaj - wszystko wiem
TTITLE2=Na drugim brzegu teczy
TTITLE3=Czy mnie jeszcze pamietasz
TTITLE4=Wolanie przez Dunajec
TTITLE5=Masz na to czas
TTITLE6=Gdybys kochal hej
TTITLE7=Powiedzielismy juz wszystko
TTITLE8=Gdzie chcesz isc
TTITLE9=Po ten ksiezyc zloty
TTITLE10=Za siodma gora (bonus)
TTITLE11=Skad taki duzy deszcz
TTITLE12=Przemijanie
TTITLE13=Dziwny wwekend
TTITLE14=Taka droge
TTITLE15=Zapraszamy na korride
TTITLE16=Piekno
TTITLE17=Nie znasz jeszcze zycia
TTITLE18=Przestroga
EXTD=
EXTT0=
EXTT1=
EXTT2=
EXTT3=
EXTT4=
EXTT5=
EXTT6=
EXTT7=
EXTT8=
EXTT9=
EXTT10=
EXTT11=
EXTT12=
EXTT13=
EXTT14=
EXTT15=
EXTT16=
EXTT17=
EXTT18=
PLAYORDER=
